Coordinates
version=1
nRows=24
nColumns=22
inDegrees=yes

Units are S.I. units (second, meters, Newtons, ...)
If the header above contains a line with 'inDegrees', this indicates whether rotational values are in degrees (yes) or radians (no).

endheader
time	pelvis_tilt	pelvis_list	pelvis_rotation	pelvis_tx	pelvis_ty	pelvis_tz	hip_flexion_r	hip_adduction_r	hip_rotation_r	knee_angle_r	ankle_angle_r	subtalar_angle_r	hip_flexion_l	hip_adduction_l	hip_rotation_l	knee_angle_l	ankle_angle_l	subtalar_angle_l	lumbar_extension	lumbar_bending	lumbar_rotation
      4.48000000	      6.02328335	      0.29710551	   -177.29326783	     -0.29785382	      0.81161418	     -0.22269312	     38.01787896	     -8.35393293	     -3.04139556	    -10.67126549	     -5.60795012	      5.54038032	    -20.14558145	     -6.00377594	     12.10233806	     -8.76410167	     23.63452795	      9.96210479	     -4.92059247	     -1.60398128	     -7.32399106
      4.49000000	      6.21020136	      0.66290409	   -177.12983925	     -0.30853951	      0.81015646	     -0.22636984	     38.47514515	     -7.88249948	     -3.21771459	    -12.04898983	     -7.80499239	      4.91884253	    -20.38698006	     -6.72153949	     12.21800754	     -9.25022076	     22.89010159	     10.37148282	     -4.78740996	     -0.92929847	     -7.13608941
      4.50000000	      6.34177655	      1.13005557	   -177.10309230	     -0.31896789	      0.80924068	     -0.23019508	     38.96380681	     -7.22499028	     -3.31217711	    -13.60251417	     -9.64748853	      4.23015437	    -20.53834422	     -7.46398825	     12.16990070	    -10.00396985	     22.07995187	     10.69231972	     -4.77783625	     -0.12894142	     -6.82603780
      4.51000000	      6.40948192	      1.66345430	   -177.22368484	     -0.32918217	      0.80893792	     -0.23412517	     39.46717326	     -6.40907320	     -3.34022426	    -15.34104226	    -10.83108781	      3.21074251	    -20.65578662	     -8.19324441	     12.03416034	    -10.93585259	     21.04691843	     11.17102400	     -4.89666211	      0.76085817	     -6.42623544
      4.52000000	      6.43417148	      2.26053292	   -177.49228100	     -0.33915303	      0.80926136	     -0.23812618	     39.94077462	     -5.44332366	     -3.30084434	    -17.15027893	    -11.36457552	      2.23481488	    -20.66189460	     -8.89347449	     11.74850251	    -12.15116980	     19.85940850	     11.66761279	     -5.12452309	      1.72828683	     -5.90115252
      4.53000000	      6.42458590	      2.86448693	   -177.88959186	     -0.34888324	      0.81021831	     -0.24214088	     40.33677926	     -4.39527287	     -3.18954457	    -18.93566750	    -11.29861283	      1.37014051	    -20.53541141	     -9.51090933	     11.37353770	    -13.65374080	     18.46945764	     12.26282589	     -5.45092572	      2.70264613	     -5.28976520
      4.54000000	      6.40189522	      3.42602179	   -178.39498541	     -0.35835406	      0.81175936	     -0.24614370	     40.60465903	     -3.32032863	     -2.96748171	    -20.55243861	    -10.83427611	      0.76889417	    -20.21120355	    -10.00392308	     10.90394363	    -15.49898214	     16.89487380	     12.91279814	     -5.85045125	      3.61849133	     -4.63020404
      4.55000000	      6.40046832	      3.90148001	   -178.92588237	     -0.36760138	      0.81379856	     -0.25003281	     40.72935704	     -2.31829397	     -2.74169836	    -21.91640506	    -10.07990532	      0.25358267	    -19.64013648	    -10.36550096	     10.50039091	    -17.64890817	     15.09344156	     13.87302020	     -6.26220202	      4.41961506	     -4.00854533
      4.56000000	      6.43282536	      4.24878551	   -179.46662562	     -0.37658438	      0.81621219	     -0.25379484	     40.70098281	     -1.43529301	     -2.47925423	    -22.95195814	     -9.21293427	     -0.06652378	    -18.76476685	    -10.56421088	     10.13469745	    -20.15697505	     13.15126300	     14.98895400	     -6.66362351	      5.05580763	     -3.43118476
      4.57000000	      6.50928490	      4.44000881	   -179.95763545	     -0.38525862	      0.81887089	     -0.25743285	     40.54256366	     -0.72856173	     -2.21666534	    -23.66520484	     -8.33289918	     -0.30600222	    -17.54895384	    -10.60722254	      9.87564766	    -23.01589010	     11.13582763	     16.38142848	     -7.02735959	      5.48541283	     -2.97426760
      4.58000000	      6.59700706	      4.48932322	   -180.36074136	     -0.39367337	      0.82170649	     -0.26088824	     40.23780047	     -0.21504473	     -2.01476141	    -24.08760926	     -7.44938431	     -0.52120269	    -16.06209452	    -10.52312764	      9.77195411	    -26.13995403	      9.08615727	     18.12152141	     -7.36908014	      5.73239074	     -2.63768870
      4.59000000	      6.75497400	      4.38739533	   -180.66191152	     -0.40170480	      0.82448662	     -0.26417352	     39.90023170	      0.09550750	     -1.82261640	    -24.27660157	     -6.64273700	     -0.72938972	    -14.20557235	    -10.30924457	      9.78875940	    -29.57394678	      7.19201654	     19.96633197	     -7.62038515	      5.78518717	     -2.42522971
      4.60000000	      6.95319635	      4.18522267	   -180.83693657	     -0.40938093	      0.82717015	     -0.26725466	     39.53763049	      0.22860262	     -1.71358283	    -24.30904275	     -5.89734762	     -0.95272267	    -12.05988415	    -10.02269883	      9.92333712	    -33.22166090	      5.52312596	     21.84739409	     -7.80642246	      5.70884684	     -2.32822031
      4.61000000	      7.17681469	      3.92867311	   -180.88137328	     -0.41669931	      0.82973106	     -0.27011458	     39.15416056	      0.22217326	     -1.70895596	    -24.21884389	     -5.21387687	     -1.18540467	     -9.68399775	     -9.70617685	     10.15080555	    -36.99779859	      4.14753052	     23.59264997	     -7.94466672	      5.55833462	     -2.32013601
      4.62000000	      7.38739485	      3.66731639	   -180.82118255	     -0.42368192	      0.83221462	     -0.27276404	     38.73135901	      0.13386920	     -1.82528385	    -24.04799476	     -4.62509110	     -1.42200656	     -7.17569723	     -9.40528562	     10.40241838	    -40.80222364	      3.07795302	     25.12536139	     -8.08540797	      5.39313836	     -2.35082810
      4.63000000	      7.59656094	      3.44453285	   -180.68869116	     -0.43035841	      0.83460696	     -0.27522159	     38.26383833	      0.03017121	     -2.00505505	    -23.76911065	     -4.08884779	     -1.63693519	     -4.57194106	     -9.16037755	     10.63312648	    -44.55018828	      2.36976272	     26.23357634	     -8.21535416	      5.26552770	     -2.37119931
      4.64000000	      7.77596575	      3.29916855	   -180.51968404	     -0.43677910	      0.83697161	     -0.27751819	     37.71611747	     -0.03183844	     -2.24238517	    -23.37460911	     -3.62933968	     -1.80382133	     -1.95409293	     -9.01681634	     10.79173102	    -48.15235367	      2.01952975	     26.82455569	     -8.36927623	      5.21977001	     -2.33616235
      4.65000000	      7.90872692	      3.22534672	   -180.37513569	     -0.44299349	      0.83934763	     -0.27974045	     37.09767190	     -0.01744414	     -2.48632201	    -22.90748629	     -3.26159409	     -1.95204957	      0.61127571	     -8.97727856	     10.81550051	    -51.52871224	      1.92088954	     26.99672580	     -8.56827126	      5.24162852	     -2.17464932
      4.66000000	      8.01084521	      3.21305430	   -180.28213952	     -0.44905347	      0.84170469	     -0.28193249	     36.42822570	      0.08354176	     -2.69618601	    -22.37389274	     -2.96033206	     -2.09220266	      3.11162405	     -9.04364211	     10.68513214	    -54.63516447	      2.08323298	     26.63497086	     -8.78918458	      5.31763287	     -1.88001775
      4.67000000	      8.06026737	      3.26125603	   -180.27110251	     -0.45502329	      0.84407084	     -0.28416391	     35.69708923	      0.29008173	     -2.84876550	    -21.79842162	     -2.71843887	     -2.21960513	      5.49884825	     -9.23619789	     10.36066114	    -57.44044281	      2.40665688	     25.65863294	     -9.05271404	      5.44061041	     -1.43570578
      4.68000000	      8.07373341	      3.34802044	   -180.35294607	     -0.46093609	      0.84641349	     -0.28647663	     34.92603369	      0.59057259	     -2.91614339	    -21.18905038	     -2.52625307	     -2.32326288	      7.76263597	     -9.53030032	      9.87761997	    -59.91782016	      2.90294476	     24.31762491	     -9.33594613	      5.57965182	     -0.83240552
      4.69000000	      8.05537389	      3.43373478	   -180.54244447	     -0.46678859	      0.84870688	     -0.28891959	     34.14680045	      0.95507776	     -2.86045543	    -20.59325818	     -2.37322157	     -2.43413517	      9.89928012	     -9.89372041	      9.21698126	    -62.06926687	      3.48963275	     22.63775520	     -9.63313577	      5.68504754	     -0.10965429
      4.70000000	      8.02548118	      3.49954772	   -180.82837343	     -0.47258145	      0.85092043	     -0.29148681	     33.38210528	      1.35365378	     -2.70309797	    -20.01682762	     -2.24443444	     -2.55273008	     11.92714496	    -10.29507920	      8.41708831	    -63.90267952	      4.11795511	     20.75849356	     -9.91790010	      5.73390180	      0.72315067
      4.71000000	      7.99080576	      3.52609157	   -181.19987330	     -0.47830326	      0.85304101	     -0.29416235	     32.64572939	      1.75699715	     -2.44901500	    -19.47525459	     -2.12707722	     -2.67953038	     13.84990318	    -10.70316690	      7.50087421	    -65.42577282	      4.76441357	     18.76487456	    -10.18035645	      5.70559361	      1.63103283
